HIERARCHY
ROOT Hips
{
     OFFSET 12.68610 96.83590 -10.06510
     CHANNELS 6 Xposition Yposition Zposition Zrotation Xrotation Yrotation
     JOINT Spine
     {
          OFFSET 0.00000 11.89050 -0.00000
          CHANNELS 3 Zrotation Xrotation Yrotation
          JOINT Spine1
          {
               OFFSET -0.00000 25.65740 0.12766
               CHANNELS 3 Zrotation Xrotation Yrotation
               JOINT HEad
               {
                    OFFSET -0.00000 8.73416 0.01134
                    CHANNELS 3 Zrotation Xrotation Yrotation
                    End Site
                    {
                         OFFSET -0.29000 12.77420 2.51395
                    }
               }
               JOINT LeftShoulder1
               {
                    OFFSET 8.99000 -0.36225 -0.22000
                    CHANNELS 3 Zrotation Xrotation Yrotation
                    JOINT LeftArm
                    {
                         OFFSET 10.28270 -0.00338 0.32212
                         CHANNELS 3 Zrotation Xrotation Yrotation
                         JOINT LeftForeArm
                         {
                              OFFSET 32.76690 0.09914 -1.42434
                              CHANNELS 3 Zrotation Xrotation Yrotation
                              JOINT LeftHand
                              {
                                   OFFSET 27.56430 0.08536 1.02216
                                   CHANNELS 3 Zrotation Xrotation Yrotation
                                   End Site
                                   {
                                        OFFSET 16.74430 -0.60000 1.50291
                                   }
                              }
                         }
                    }
               }
               JOINT RightShoulder
               {
                    OFFSET -8.99000 -0.36225 -0.22000
                    CHANNELS 3 Zrotation Xrotation Yrotation
                    JOINT RightArm
                    {
                         OFFSET -10.28270 -0.00338 0.32212
                         CHANNELS 3 Zrotation Xrotation Yrotation
                         JOINT RightForeArm
                         {
                              OFFSET -32.89710 0.09914 -1.42434
                              CHANNELS 3 Zrotation Xrotation Yrotation
                              JOINT RightHand
                              {
                                   OFFSET -27.49210 0.08536 1.02216
                                   CHANNELS 3 Zrotation Xrotation Yrotation
                                   End Site
                                   {
                                        OFFSET -16.63120 -0.60000 1.50291
                                   }
                              }
                         }
                    }
               }
          }
     }
     JOINT LeftUpLeg
     {
          OFFSET 8.94580 -8.66707 0.10165
          CHANNELS 3 Zrotation Xrotation Yrotation
          JOINT LeftLeg
          {
               OFFSET 0.00000 -44.42270 1.37270
               CHANNELS 3 Zrotation Xrotation Yrotation
               JOINT LeftFoot
               {
                    OFFSET -0.25355 -42.09240 -1.46059
                    CHANNELS 3 Zrotation Xrotation Yrotation
                    JOINT LeftToes
                    {
                         OFFSET -0.04000 -4.41509 8.49910
                         CHANNELS 3 Zrotation Xrotation Yrotation
                         End Site
                         {
                              OFFSET 0.08000 -0.04745 9.77979
                         }
                    }
               }
          }
     }
     JOINT RightUpLeg
     {
          OFFSET -8.94580 -8.66707 0.10165
          CHANNELS 3 Zrotation Xrotation Yrotation
          JOINT RightLeg
          {
               OFFSET -0.00000 -44.42270 1.37270
               CHANNELS 3 Zrotation Xrotation Yrotation
               JOINT RightFoot
               {
                    OFFSET 0.25355 -42.09240 -1.46059
                    CHANNELS 3 Zrotation Xrotation Yrotation
                    JOINT RightToes
                    {
                         OFFSET 0.04000 -4.41509 8.49910
                         CHANNELS 3 Zrotation Xrotation Yrotation
                         End Site
                         {
                              OFFSET -0.08000 -0.13745 9.77979
                         }
                    }
               }
          }
     }
}
MOTION
Frames: 19
Frame Time: 0.01667
12.68610 96.83590 -10.06510 -6.00288 -11.75870 -25.38090 -0.73692 11.24930 -2.11357 -0.57408 22.40420 -4.05785 -0.71576 -7.97181 13.46600 -0.00000 -0.00000 0.00000 -145.39500 -64.91570 -114.94700 -50.57220 64.35540 -71.62450 17.45840 7.47579 -12.22010 16.08160 0.64295 0.91469 80.68480 0.48920 72.03020 14.10400 31.59730 101.73500 18.87610 11.90290 7.43823 15.63290 -1.15085 -15.99680 -17.79140 4.80843 54.85880 -0.31348 12.43040 -0.03547 4.98809 -21.99640 -57.33420 -17.01300 5.24862 13.73720 29.67620 9.23675 -16.95580 -38.05430 8.78995 5.59739 11.95100 -50.40610 20.76710 
12.65760 96.84330 -10.36910 -5.57071 -11.79790 -24.40160 -0.82621 11.32010 -1.99757 -0.80858 22.53420 -3.78409 -1.32912 -7.77076 14.32260 -0.00000 -0.00000 0.00000 -143.50600 -64.83870 -113.17500 -49.64770 64.12000 -72.67170 17.35640 7.48547 -12.25600 16.12330 0.61644 0.76696 80.19310 0.88216 72.09220 14.11290 31.48820 101.66100 18.52950 11.89010 7.57630 15.20180 -1.67876 -16.25200 -17.57290 4.66701 54.04430 0.21609 12.98520 -0.13227 5.09957 -21.63190 -56.84020 -17.43500 5.20659 13.37940 30.13820 9.00057 -17.62230 -37.95520 8.79373 5.58281 11.76870 -49.89760 20.76580 
12.56370 96.87440 -10.78570 -4.95964 -11.81290 -23.08130 -0.95799 11.37700 -1.88796 -1.10322 22.63040 -3.51932 -1.92145 -7.60860 15.21880 -0.00000 -0.00000 0.00000 -141.49100 -64.55260 -111.26400 -48.68580 63.93610 -73.66060 17.30800 7.47053 -12.40560 16.18580 0.60602 0.70353 79.94210 0.95283 72.15850 14.31730 31.71740 101.57700 18.21240 11.87090 7.66177 14.63030 -2.37928 -16.33700 -17.19720 4.53520 52.78860 0.29319 13.80010 -0.15307 5.38346 -20.68370 -56.41870 -17.94200 5.12493 13.00450 30.68800 8.65857 -18.56470 -37.94950 8.78531 5.57899 11.53670 -49.34520 20.66680 
12.40360 96.91170 -11.30630 -4.20919 -11.77540 -21.43440 -1.08191 11.41000 -1.78840 -1.37485 22.67400 -3.27704 -2.50198 -7.46916 16.10890 -0.00000 -0.00000 0.00000 -139.67999 -64.08290 -109.43600 -48.07650 63.83730 -74.26950 17.25810 7.45914 -12.53340 16.11210 0.61435 0.75715 79.99580 0.66863 72.21280 14.60080 32.20520 101.51800 17.96630 11.85230 7.70662 13.99480 -3.25528 -16.32050 -16.77330 4.38858 51.17130 -0.08033 14.68790 -0.08815 5.84401 -19.09610 -55.95400 -18.48820 4.99265 12.64360 31.31980 8.23363 -19.82160 -38.05580 8.68038 5.55948 11.22780 -48.71430 20.41990 
12.18740 96.93710 -11.91360 -3.37089 -11.67750 -19.52240 -1.18023 11.42660 -1.69144 -1.60022 22.68210 -3.04405 -3.02599 -7.32304 16.99680 -0.00000 -0.00000 0.00000 -138.26401 -63.45700 -107.85500 -47.92970 63.84620 -74.44760 17.14360 7.47571 -12.53750 15.91730 0.63834 0.91151 80.17110 0.15427 72.27390 14.84510 32.69570 101.53300 17.85230 11.84330 7.72582 13.35470 -4.24730 -16.18090 -16.38420 4.20370 49.21560 -0.89555 15.44560 0.07143 6.41545 -16.99970 -55.20410 -19.04440 4.80549 12.31590 32.01050 7.77214 -21.33470 -38.23220 8.44859 5.50650 10.82300 -47.99330 19.96720 
11.93060 96.93880 -12.58410 -2.49083 -11.52450 -17.44320 -1.25190 11.44990 -1.58658 -1.79697 22.70370 -2.79463 -3.45879 -7.18937 17.89970 -0.00000 -0.00000 0.00000 -137.48000 -62.70900 -106.75900 -48.27420 64.01390 -74.22350 16.93830 7.53173 -12.36260 15.65620 0.67001 1.12033 80.28480 -0.41771 72.39770 14.97190 32.96050 101.66100 17.91020 11.84560 7.70201 12.74490 -5.24737 -15.77350 -16.05740 3.96242 46.97830 -2.10228 15.97320 0.32010 6.90963 -14.95780 -54.10850 -19.59230 4.54157 11.98210 32.71190 7.38247 -22.97110 -38.39500 8.12323 5.41774 10.35290 -47.23550 19.32390 
11.65070 96.91000 -13.28980 -1.60707 -11.31900 -15.30560 -1.29524 11.50430 -1.46666 -1.98547 22.78800 -2.50838 -3.82453 -7.12678 18.81750 -0.00000 -0.00000 0.00000 -137.76601 -61.90430 -106.53800 -49.36200 64.47340 -73.41500 16.68970 7.62226 -11.98440 15.35310 0.69966 1.32992 80.31790 -0.95674 72.65320 14.97710 32.98420 101.87700 18.07930 11.85150 7.62868 12.20340 -6.16075 -14.98570 -15.82520 3.66193 44.71180 -3.52473 16.25850 0.61924 7.10153 -13.90590 -53.00040 -20.12070 4.17016 11.54800 33.37850 7.19022 -24.59210 -38.51400 7.76737 5.31058 9.89617 -46.56350 18.59270 
11.36420 96.85080 -14.00440 -0.75374 -11.07140 -13.20750 -1.31950 11.60130 -1.32728 -2.17494 22.95760 -2.17727 -4.16223 -7.17953 19.74540 -0.00000 -0.00000 0.00000 -139.17000 -61.11730 -107.24100 -51.33160 65.27180 -71.88210 16.57180 7.70921 -11.48780 15.03600 0.72065 1.49930 80.34230 -1.46908 73.06850 14.94090 32.92150 102.08700 18.24870 11.85380 7.53490 11.77210 -6.93226 -13.86200 -15.76140 3.34599 42.82030 -4.89257 16.25980 0.90374 6.90248 -14.50300 -52.37290 -20.62930 3.70662 10.94090 33.99080 7.22857 -26.10470 -38.66040 7.43085 5.21351 9.52618 -46.09430 17.89460 
11.08250 96.77250 -14.70880 0.04026 -10.80870 -11.22820 -1.35571 11.73540 -1.16603 -2.36440 23.19830 -1.80519 -4.47237 -7.32999 20.69980 -0.00000 -0.00000 0.00000 -140.58099 -60.40580 -107.96400 -53.28960 66.08770 -70.38380 16.76990 7.74187 -11.06290 14.73110 0.73443 1.63051 80.40100 -1.98868 73.59410 14.95100 32.89930 102.20000 18.36130 11.85240 7.45585 11.48000 -7.53957 -12.57230 -15.94900 3.13377 41.71260 -5.93439 15.87460 1.10300 6.38011 -16.59350 -52.44500 -21.11740 3.21902 10.18180 34.54120 7.41560 -27.46830 -38.92920 7.12440 5.14394 9.26376 -45.84370 17.30250 
10.81200 96.69200 -15.39260 0.75886 -10.55830 -9.40910 -1.44262 11.88730 -0.98699 -2.54061 23.46640 -1.41163 -4.75214 -7.50746 21.68900 -0.00000 -0.00000 0.00000 -140.30099 -59.83100 -107.34700 -53.35540 66.35980 -70.62450 17.20980 7.71417 -10.84160 14.44420 0.74907 1.76750 80.48220 -2.53010 74.12790 15.02820 32.92540 102.19200 18.42890 11.85010 7.40006 11.34710 -8.01094 -11.37510 -16.45790 3.20126 41.80310 -6.40123 15.03640 1.15705 5.65810 -19.47310 -53.06930 -21.58240 2.77388 9.38761 35.03660 7.62258 -28.69730 -39.33530 6.82499 5.09491 9.07619 -45.71310 16.82510 
10.55580 96.61750 -16.05130 1.40121 -10.33450 -7.72585 -1.59559 12.03720 -0.80917 -2.67356 23.72020 -1.04406 -5.05665 -7.66489 22.69210 -0.00000 -0.00000 0.00000 -137.92101 -59.40490 -105.06500 -50.83590 65.82870 -73.22690 17.59630 7.66317 -10.83450 14.18620 0.76839 1.93066 80.54450 -3.05694 74.57740 15.12620 32.94940 102.09100 18.47110 11.84710 7.35629 11.41200 -8.42248 -10.64580 -17.37560 3.67698 43.54670 -6.12345 13.75190 1.04157 4.87748 -22.38120 -53.96950 -22.03120 2.40330 8.69367 35.51520 7.75653 -29.85250 -39.78690 6.49121 5.03746 8.90169 -45.54450 16.41990 
10.31440 96.54260 -16.68050 1.97609 -10.14480 -6.10400 -1.79106 12.17550 -0.66531 -2.73361 23.94610 -0.77179 -5.44475 -7.81748 23.70300 -0.00000 -0.00000 0.00000 -134.84599 -59.12510 -102.20600 -47.31090 64.81500 -76.68250 17.74050 7.61691 -11.01230 13.99840 0.78708 2.07987 80.54590 -3.47632 74.89240 15.17100 32.93360 101.95200 18.48820 11.84150 7.31223 11.73810 -8.84544 -10.83160 -18.82630 4.53138 47.26970 -5.20675 12.04230 0.80384 4.22705 -24.60200 -54.95610 -22.47140 2.10789 8.14529 36.01460 7.83585 -30.99810 -40.15630 6.07751 4.93650 8.69255 -45.22520 16.03540 
10.08470 96.45340 -17.27290 2.49680 -9.99909 -4.46996 -1.99267 12.30440 -0.58177 -2.71937 24.15910 -0.64629 -5.87540 -7.99378 24.72490 -0.00000 -0.00000 0.00000 -132.73199 -59.08450 -100.07500 -44.61860 63.93310 -79.29370 17.65350 7.58778 -11.28500 13.91790 0.79683 2.15521 80.48920 -3.69363 75.05980 15.10630 32.87300 101.84200 18.48160 11.83010 7.24831 12.35080 -9.30965 -12.21390 -20.88490 5.60744 52.81120 -4.12736 9.96844 0.55718 3.92682 -25.50460 -55.92790 -22.90070 1.88379 7.68513 36.53440 7.94932 -32.18700 -40.41460 5.57972 4.78669 8.47583 -44.83520 15.68020 
9.86175 96.34050 -17.82140 2.97944 -9.91023 -2.77380 -2.18940 12.43510 -0.56210 -2.65029 24.39020 -0.67559 -6.23563 -8.18387 25.69330 -0.00000 -0.00000 0.00000 -132.31599 -59.35770 -99.29600 -43.42480 63.59880 -80.51260 17.41900 7.59191 -11.47680 13.92090 0.79081 2.11845 80.44710 -3.67643 75.09310 14.92150 32.78640 101.81800 18.46010 11.81130 7.14902 13.15910 -9.78877 -14.60030 -23.41270 6.75443 59.29250 -3.40686 7.78634 0.39546 4.08117 -24.92240 -56.73600 -23.32460 1.76658 7.26576 37.06250 8.08821 -33.49690 -40.67890 5.08891 4.63773 8.36157 -44.67390 15.44660 
9.64157 96.20850 -18.32440 3.44178 -9.88496 -0.98051 -2.40237 12.57540 -0.59159 -2.53511 24.65670 -0.83790 -6.46401 -8.33273 26.46480 -0.00000 -0.00000 0.00000 -133.33800 -59.87770 -99.72750 -43.35800 63.80360 -80.72180 17.12410 7.63333 -11.47650 13.94990 0.76594 1.96329 80.48880 -3.48163 75.00300 14.66360 32.69560 101.88500 18.44430 11.79030 7.03244 13.99910 -10.18150 -17.31960 -26.03720 7.89391 65.45060 -3.14991 5.96799 0.32227 4.52757 -23.46590 -57.24710 -23.76730 1.83167 6.90803 37.60520 8.09629 -35.01700 -41.08920 4.75951 4.56514 8.47436 -45.05660 15.47030 
9.42198 96.07300 -18.77940 3.90183 -9.90706 0.91828 -2.65445 12.71330 -0.64832 -2.37004 24.93040 -1.09617 -6.60540 -8.36387 26.91330 -0.00000 -0.00000 0.00000 -134.87900 -60.50330 -100.66300 -43.56710 64.22060 -80.69770 16.84790 7.69276 -11.33200 13.98430 0.72577 1.71613 80.58230 -3.22934 74.75800 14.42560 32.60690 102.00400 18.46870 11.77750 6.94165 14.78040 -10.35140 -19.64040 -28.36640 8.97901 70.36420 -3.06921 4.91030 0.29095 4.92968 -22.18250 -57.55470 -24.24780 2.11217 6.62508 38.16140 7.86051 -36.76080 -41.66900 4.66972 4.60256 8.86769 -46.05550 15.83900 
9.20360 95.94370 -19.17640 4.37112 -9.93690 2.87925 -2.93561 12.81900 -0.71138 -2.16647 25.14840 -1.40045 -6.74449 -8.22840 27.01430 -0.00000 -0.00000 0.00000 -136.02200 -61.16160 -101.34000 -43.42640 64.53040 -81.02340 16.67820 7.74101 -11.15750 14.04460 0.67884 1.42494 80.61740 -3.02911 74.30210 14.28180 32.50630 102.12200 18.55970 11.78300 6.92064 15.52870 -10.22520 -21.17030 -30.17870 9.96693 73.82890 -2.87412 4.66911 0.26503 5.03424 -21.85320 -57.91300 -24.75000 2.52311 6.36525 38.69770 7.50237 -38.62330 -42.30860 4.70962 4.69724 9.46525 -47.41110 16.47530 
8.98939 95.81420 -19.50360 4.85055 -9.94093 4.83606 -3.21273 12.86970 -0.76880 -1.95618 25.26430 -1.70592 -6.91932 -7.95242 26.82900 -0.00000 -0.00000 0.00000 -136.34801 -61.86250 -101.38200 -42.82920 64.61830 -81.83860 16.71190 7.75647 -11.01570 14.14830 0.63144 1.12610 80.50750 -2.91699 73.62000 14.20970 32.36260 102.22600 18.71950 11.81170 6.99603 16.29840 -9.82957 -21.90490 -31.42770 10.84090 76.11720 -2.49543 4.98298 0.22925 4.80753 -22.55650 -58.41100 -25.23760 2.91321 6.06312 39.18540 7.29994 -40.45010 -42.84640 4.65259 4.74163 10.07630 -48.71270 17.12100 
8.78363 95.66800 -19.75820 5.33888 -9.90993 6.76838 -3.45600 12.86610 -0.82617 -1.76723 25.28060 -2.00408 -7.10190 -7.62934 26.45660 -0.00000 -0.00000 0.00000 -135.81500 -62.61430 -100.73500 -41.82580 64.48060 -83.13660 16.97360 7.73781 -10.89810 14.29230 0.58528 0.83215 80.24410 -2.87166 72.77630 14.13110 32.15760 102.33300 18.93430 11.85930 7.14854 17.11180 -9.25410 -22.07960 -32.17540 11.59010 77.56300 -2.08515 5.45137 0.18970 4.42853 -23.69690 -58.83280 -25.69570 3.18653 5.69543 39.64040 7.45154 -42.13690 -43.16610 4.33981 4.65653 10.50030 -49.68090 17.46840 
